<svg width="135" height="39" xmlns="http://www.w3.org/2000/svg"><path d="M124.75 19.047c2.688 0 4.984-.914 6.89-2.742 1.907-1.828 2.86-4.04 2.86-6.633 0-2.594-.953-4.813-2.86-6.656-1.906-1.844-4.202-2.766-6.89-2.766-2.688 0-4.984.922-6.89 2.766-1.907 1.843-2.86 4.062-2.86 6.656a8.87 8.87 0 0 0 1.547 5.062l.094.094c.03.031.046.063.046.094.126.25.188.484.188.703l-1.031 4.125 3.937-1.453c.125-.063.313-.094.563-.094.094 0 .265.031.515.094.032 0 .047.008.047.023 0 .016.016.024.047.024 1.156.469 2.422.703 3.797.703zm-5.578-10.125c.281-.281.64-.422 1.078-.422.438 0 .797.14 1.078.422.281.281.422.64.422 1.078 0 .438-.14.797-.422 1.078-.281.281-.64.422-1.078.422-.438 0-.797-.14-1.078-.422-.281-.281-.422-.64-.422-1.078 0-.438.14-.797.422-1.078zm4.5 0c.281-.281.64-.422 1.078-.422.438 0 .797.14 1.078.422.281.281.422.64.422 1.078 0 .438-.14.797-.422 1.078-.281.281-.64.422-1.078.422-.438 0-.797-.14-1.078-.422-.281-.281-.422-.64-.422-1.078 0-.438.14-.797.422-1.078zm4.5 0c.281-.281.64-.422 1.078-.422.438 0 .797.14 1.078.422.281.281.422.64.422 1.078 0 .438-.14.797-.422 1.078-.281.281-.64.422-1.078.422-.438 0-.797-.14-1.078-.422-.281-.281-.422-.64-.422-1.078 0-.438.14-.797.422-1.078zM12.996 13.16l-.288 3.996a7.62 7.62 0 0 0-2.124-.324c-1.416 0-2.124.768-2.124 2.304v1.152h3.816v4.356H8.46V38H2.664V24.644H.396v-4.356h2.268v-.972c0-2.208.48-3.804 1.44-4.788 1.152-1.224 2.808-1.836 4.968-1.836.672 0 1.332.042 1.98.126.648.084 1.14.162 1.476.234l.468.108zm17.028 15.444l-.072 1.908H17.316c.12 1.224.594 2.148 1.422 2.772.828.624 1.866.936 3.114.936 1.896 0 3.672-.564 5.328-1.692l2.268 2.988-.324.288c-.24.192-.456.354-.648.486s-.468.312-.828.54c-.36.228-.756.42-1.188.576a39.75 39.75 0 0 1-1.44.486 10.07 10.07 0 0 1-1.836.378 18.02 18.02 0 0 1-2.16.126c-2.808 0-5.088-.822-6.84-2.466-1.752-1.644-2.628-3.906-2.628-6.786 0-2.832.912-5.076 2.736-6.732 1.824-1.656 4.104-2.484 6.84-2.484 2.64 0 4.782.798 6.426 2.394 1.644 1.596 2.466 3.69 2.466 6.282zm-12.672-1.368h7.308c-.024-.912-.354-1.734-.99-2.466-.636-.732-1.518-1.098-2.646-1.098-1.104 0-1.98.36-2.628 1.08-.648.72-.996 1.548-1.044 2.484zm31.86 1.368l-.072 1.908H36.504c.12 1.224.594 2.148 1.422 2.772.828.624 1.866.936 3.114.936 1.896 0 3.672-.564 5.328-1.692l2.268 2.988-.324.288c-.24.192-.456.354-.648.486s-.468.312-.828.54c-.36.228-.756.42-1.188.576a39.75 39.75 0 0 1-1.44.486 10.07 10.07 0 0 1-1.836.378 18.02 18.02 0 0 1-2.16.126c-2.808 0-5.088-.822-6.84-2.466-1.752-1.644-2.628-3.906-2.628-6.786 0-2.832.912-5.076 2.736-6.732 1.824-1.656 4.104-2.484 6.84-2.484 2.64 0 4.782.798 6.426 2.394 1.644 1.596 2.466 3.69 2.466 6.282zM36.54 27.236h7.308c-.024-.912-.354-1.734-.99-2.466-.636-.732-1.518-1.098-2.646-1.098-1.104 0-1.98.36-2.628 1.08-.648.72-.996 1.548-1.044 2.484zM69.696 13.16V38h-5.472l.036-2.34-.108.036c-1.32 1.8-3.264 2.7-5.832 2.7-2.52 0-4.548-.876-6.084-2.628-1.536-1.752-2.304-3.96-2.304-6.624 0-2.664.768-4.866 2.304-6.606 1.536-1.74 3.564-2.61 6.084-2.61 1.44 0 2.634.264 3.582.792s1.626 1.092 2.034 1.692V13.16h5.76zm-6.732 19.26c.768-.864 1.152-1.98 1.152-3.348 0-1.368-.378-2.478-1.134-3.33-.756-.852-1.758-1.278-3.006-1.278-1.248 0-2.256.426-3.024 1.278-.768.852-1.152 1.962-1.152 3.33s.384 2.478 1.152 3.33c.768.852 1.776 1.278 3.024 1.278s2.244-.42 2.988-1.26zm15.084-19.368c.624.552.936 1.272.936 2.16 0 .888-.3 1.608-.9 2.16-.6.552-1.392.828-2.376.828s-1.776-.276-2.376-.828c-.6-.552-.9-1.272-.9-2.16 0-.888.306-1.608.918-2.16.612-.552 1.398-.828 2.358-.828.96 0 1.74.276 2.34.828zm.54 7.2V38h-5.76V20.252h5.76zM99 28.604l-.072 1.908H86.292c.12 1.224.594 2.148 1.422 2.772.828.624 1.866.936 3.114.936 1.896 0 3.672-.564 5.328-1.692l2.268 2.988-.324.288c-.24.192-.456.354-.648.486s-.468.312-.828.54c-.36.228-.756.42-1.188.576a39.75 39.75 0 0 1-1.44.486 10.07 10.07 0 0 1-1.836.378 18.02 18.02 0 0 1-2.16.126c-2.808 0-5.088-.822-6.84-2.466-1.752-1.644-2.628-3.906-2.628-6.786 0-2.832.912-5.076 2.736-6.732 1.824-1.656 4.104-2.484 6.84-2.484 2.64 0 4.782.798 6.426 2.394C98.178 23.918 99 26.012 99 28.604zm-12.672-1.368h7.308c-.024-.912-.354-1.734-.99-2.466-.636-.732-1.518-1.098-2.646-1.098-1.104 0-1.98.36-2.628 1.08-.648.72-.996 1.548-1.044 2.484zm26.424-6.984l-.324 5.292h-.252c-.528-.288-1.224-.432-2.088-.432-1.128 0-2.016.432-2.664 1.296-.6.792-.9 2.028-.9 3.708V38h-5.76V20.252h5.76l-.036 2.52h.072c.984-1.896 2.448-2.844 4.392-2.844.36 0 .69.024.99.072.3.048.51.096.63.144l.18.108z" fill="#434E51" fill-rule="evenodd"/></svg>